solid Exported from Blender-2.82 (sub 7)
facet normal -0.000008 0.000000 1.000000
outer loop
vertex 0.012499 0.068875 0.450000
vertex 0.006275 0.069718 0.450000
vertex 0.000000 0.070000 0.450000
endloop
endfacet
facet normal -0.000016 0.000000 1.000000
outer loop
vertex 0.000000 0.070000 0.450000
vertex -0.006275 0.069718 0.450000
vertex -0.012499 0.068875 0.450000
endloop
endfacet
facet normal 0.000033 0.000000 1.000000
outer loop
vertex -0.012499 0.068875 0.450000
vertex -0.018622 0.067477 0.450000
vertex -0.024596 0.065536 0.450000
endloop
endfacet
facet normal -0.000066 0.000000 1.000000
outer loop
vertex -0.024596 0.065536 0.450000
vertex -0.030372 0.063068 0.450000
vertex -0.035903 0.060091 0.450000
endloop
endfacet
facet normal 0.000000 0.000000 1.000000
outer loop
vertex -0.035903 0.060091 0.450000
vertex -0.041145 0.056631 0.450000
vertex -0.046056 0.052715 0.450000
endloop
endfacet
facet normal 0.000000 0.000000 1.000000
outer loop
vertex -0.046056 0.052715 0.450000
vertex -0.050596 0.048374 0.450000
vertex -0.054728 0.043644 0.450000
endloop
endfacet
facet normal 0.000000 0.000000 1.000000
outer loop
vertex -0.054728 0.043644 0.450000
vertex -0.058420 0.038563 0.450000
vertex -0.061642 0.033171 0.450000
endloop
endfacet
facet normal -0.000132 0.000000 1.000000
outer loop
vertex -0.061642 0.033171 0.450000
vertex -0.064367 0.027512 0.450000
vertex -0.066574 0.021631 0.450000
endloop
endfacet
facet normal 0.000000 0.000000 1.000000
outer loop
vertex -0.066574 0.021631 0.450000
vertex -0.068245 0.015577 0.450000
vertex -0.069366 0.009396 0.450000
endloop
endfacet
facet normal 0.000000 0.000000 1.000000
outer loop
vertex -0.069366 0.009396 0.450000
vertex -0.069930 0.003141 0.450000
vertex -0.069930 -0.003140 0.450000
endloop
endfacet
facet normal 0.000132 0.000000 1.000000
outer loop
vertex -0.069930 -0.003140 0.450000
vertex -0.069366 -0.009396 0.450000
vertex -0.068245 -0.015576 0.450000
endloop
endfacet
facet normal 0.000000 0.000000 1.000000
outer loop
vertex -0.068245 -0.015576 0.450000
vertex -0.066574 -0.021631 0.450000
vertex -0.064367 -0.027512 0.450000
endloop
endfacet
facet normal 0.000000 0.000000 1.000000
outer loop
vertex -0.064367 -0.027512 0.450000
vertex -0.061642 -0.033171 0.450000
vertex -0.058420 -0.038563 0.450000
endloop
endfacet
facet normal 0.000132 0.000000 1.000000
outer loop
vertex -0.058420 -0.038563 0.450000
vertex -0.054728 -0.043644 0.450000
vertex -0.050596 -0.048374 0.450000
endloop
endfacet
facet normal 0.000000 0.000000 1.000000
outer loop
vertex -0.050596 -0.048374 0.450000
vertex -0.046056 -0.052715 0.450000
vertex -0.041145 -0.056631 0.450000
endloop
endfacet
facet normal 0.000066 0.000000 1.000000
outer loop
vertex -0.041145 -0.056631 0.450000
vertex -0.035903 -0.060091 0.450000
vertex -0.030372 -0.063068 0.450000
endloop
endfacet
facet normal -0.000033 0.000000 1.000000
outer loop
vertex -0.030372 -0.063068 0.450000
vertex -0.024596 -0.065536 0.450000
vertex -0.018623 -0.067477 0.450000
endloop
endfacet
facet normal -0.000033 0.000000 1.000000
outer loop
vertex -0.018623 -0.067477 0.450000
vertex -0.012499 -0.068875 0.450000
vertex -0.006275 -0.069718 0.450000
endloop
endfacet
facet normal 0.000000 0.000000 1.000000
outer loop
vertex -0.006275 -0.069718 0.450000
vertex -0.000000 -0.070000 0.450000
vertex 0.006275 -0.069718 0.450000
endloop
endfacet
facet normal 0.000000 0.000000 1.000000
outer loop
vertex 0.006275 -0.069718 0.450000
vertex 0.012499 -0.068875 0.450000
vertex 0.018623 -0.067477 0.450000
endloop
endfacet
facet normal 0.000000 0.000000 1.000000
outer loop
vertex 0.018623 -0.067477 0.450000
vertex 0.024596 -0.065536 0.450000
vertex 0.030372 -0.063068 0.450000
endloop
endfacet
facet normal 0.000000 0.000000 1.000000
outer loop
vertex 0.030372 -0.063068 0.450000
vertex 0.035903 -0.060091 0.450000
vertex 0.041145 -0.056631 0.450000
endloop
endfacet
facet normal 0.000000 0.000000 1.000000
outer loop
vertex 0.041145 -0.056631 0.450000
vertex 0.046056 -0.052715 0.450000
vertex 0.050596 -0.048374 0.450000
endloop
endfacet
facet normal -0.000132 0.000000 1.000000
outer loop
vertex 0.050596 -0.048374 0.450000
vertex 0.054728 -0.043644 0.450000
vertex 0.058420 -0.038563 0.450000
endloop
endfacet
facet normal -0.000132 0.000000 1.000000
outer loop
vertex 0.058420 -0.038563 0.450000
vertex 0.061642 -0.033171 0.450000
vertex 0.064367 -0.027512 0.450000
endloop
endfacet
facet normal -0.000132 0.000000 1.000000
outer loop
vertex 0.064367 -0.027512 0.450000
vertex 0.066574 -0.021631 0.450000
vertex 0.068245 -0.015576 0.450000
endloop
endfacet
facet normal 0.000132 0.000000 1.000000
outer loop
vertex 0.068245 -0.015576 0.450000
vertex 0.069366 -0.009396 0.450000
vertex 0.069930 -0.003141 0.450000
endloop
endfacet
facet normal 0.000000 0.000000 1.000000
outer loop
vertex 0.069930 -0.003141 0.450000
vertex 0.069930 0.003141 0.450000
vertex 0.069366 0.009396 0.450000
endloop
endfacet
facet normal 0.000000 0.000000 1.000000
outer loop
vertex 0.069366 0.009396 0.450000
vertex 0.068245 0.015576 0.450000
vertex 0.066574 0.021631 0.450000
endloop
endfacet
facet normal -0.000132 0.000000 1.000000
outer loop
vertex 0.066574 0.021631 0.450000
vertex 0.064367 0.027512 0.450000
vertex 0.061642 0.033171 0.450000
endloop
endfacet
facet normal 0.000000 0.000000 1.000000
outer loop
vertex 0.061642 0.033171 0.450000
vertex 0.058420 0.038563 0.450000
vertex 0.054728 0.043644 0.450000
endloop
endfacet
facet normal 0.000000 0.000000 1.000000
outer loop
vertex 0.054728 0.043644 0.450000
vertex 0.050596 0.048374 0.450000
vertex 0.046056 0.052715 0.450000
endloop
endfacet
facet normal 0.000000 0.000000 1.000000
outer loop
vertex 0.046056 0.052715 0.450000
vertex 0.041145 0.056631 0.450000
vertex 0.035903 0.060091 0.450000
endloop
endfacet
facet normal 0.000000 0.000000 1.000000
outer loop
vertex 0.035903 0.060091 0.450000
vertex 0.030372 0.063068 0.450000
vertex 0.024596 0.065536 0.450000
endloop
endfacet
facet normal 0.000000 0.000000 1.000000
outer loop
vertex 0.024596 0.065536 0.450000
vertex 0.018623 0.067477 0.450000
vertex 0.012499 0.068875 0.450000
endloop
endfacet
facet normal 0.000004 0.000000 1.000000
outer loop
vertex 0.012499 0.068875 0.450000
vertex 0.000000 0.070000 0.450000
vertex -0.012499 0.068875 0.450000
endloop
endfacet
facet normal 0.000017 0.000000 1.000000
outer loop
vertex -0.012499 0.068875 0.450000
vertex -0.024596 0.065536 0.450000
vertex -0.035903 0.060091 0.450000
endloop
endfacet
facet normal 0.000000 0.000000 1.000000
outer loop
vertex -0.035903 0.060091 0.450000
vertex -0.046056 0.052715 0.450000
vertex -0.054728 0.043644 0.450000
endloop
endfacet
facet normal 0.000000 0.000000 1.000000
outer loop
vertex -0.054728 0.043644 0.450000
vertex -0.061642 0.033171 0.450000
vertex -0.066574 0.021631 0.450000
endloop
endfacet
facet normal 0.000000 0.000000 1.000000
outer loop
vertex -0.066574 0.021631 0.450000
vertex -0.069366 0.009396 0.450000
vertex -0.069930 -0.003140 0.450000
endloop
endfacet
facet normal 0.000000 0.000000 1.000000
outer loop
vertex -0.069930 -0.003140 0.450000
vertex -0.068245 -0.015576 0.450000
vertex -0.064367 -0.027512 0.450000
endloop
endfacet
facet normal 0.000000 0.000000 1.000000
outer loop
vertex -0.064367 -0.027512 0.450000
vertex -0.058420 -0.038563 0.450000
vertex -0.050596 -0.048374 0.450000
endloop
endfacet
facet normal -0.000017 0.000000 1.000000
outer loop
vertex -0.050596 -0.048374 0.450000
vertex -0.041145 -0.056631 0.450000
vertex -0.030372 -0.063068 0.450000
endloop
endfacet
facet normal 0.000008 0.000000 1.000000
outer loop
vertex -0.030372 -0.063068 0.450000
vertex -0.018623 -0.067477 0.450000
vertex -0.006275 -0.069718 0.450000
endloop
endfacet
facet normal 0.000000 0.000000 1.000000
outer loop
vertex -0.006275 -0.069718 0.450000
vertex 0.006275 -0.069718 0.450000
vertex 0.018623 -0.067477 0.450000
endloop
endfacet
facet normal 0.000017 0.000000 1.000000
outer loop
vertex 0.018623 -0.067477 0.450000
vertex 0.030372 -0.063068 0.450000
vertex 0.041145 -0.056631 0.450000
endloop
endfacet
facet normal 0.000033 0.000000 1.000000
outer loop
vertex 0.041145 -0.056631 0.450000
vertex 0.050596 -0.048374 0.450000
vertex 0.058420 -0.038563 0.450000
endloop
endfacet
facet normal 0.000033 0.000000 1.000000
outer loop
vertex 0.058420 -0.038563 0.450000
vertex 0.064367 -0.027512 0.450000
vertex 0.068245 -0.015576 0.450000
endloop
endfacet
facet normal -0.000033 0.000000 1.000000
outer loop
vertex 0.068245 -0.015576 0.450000
vertex 0.069930 -0.003141 0.450000
vertex 0.069366 0.009396 0.450000
endloop
endfacet
facet normal 0.000033 0.000000 1.000000
outer loop
vertex 0.069366 0.009396 0.450000
vertex 0.066574 0.021631 0.450000
vertex 0.061642 0.033171 0.450000
endloop
endfacet
facet normal -0.000033 0.000000 1.000000
outer loop
vertex 0.061642 0.033171 0.450000
vertex 0.054728 0.043644 0.450000
vertex 0.046056 0.052715 0.450000
endloop
endfacet
facet normal -0.000017 0.000000 1.000000
outer loop
vertex 0.046056 0.052715 0.450000
vertex 0.035903 0.060091 0.450000
vertex 0.024596 0.065536 0.450000
endloop
endfacet
facet normal -0.000001 0.000000 1.000000
outer loop
vertex 0.024596 0.065536 0.450000
vertex 0.012499 0.068875 0.450000
vertex -0.012499 0.068875 0.450000
endloop
endfacet
facet normal -0.000004 0.000000 1.000000
outer loop
vertex -0.012499 0.068875 0.450000
vertex -0.035903 0.060091 0.450000
vertex -0.054728 0.043644 0.450000
endloop
endfacet
facet normal 0.000000 0.000000 1.000000
outer loop
vertex -0.054728 0.043644 0.450000
vertex -0.066574 0.021631 0.450000
vertex -0.069930 -0.003140 0.450000
endloop
endfacet
facet normal 0.000000 0.000000 1.000000
outer loop
vertex -0.069930 -0.003140 0.450000
vertex -0.064367 -0.027512 0.450000
vertex -0.050596 -0.048374 0.450000
endloop
endfacet
facet normal 0.000004 0.000000 1.000000
outer loop
vertex -0.050596 -0.048374 0.450000
vertex -0.030372 -0.063068 0.450000
vertex -0.006275 -0.069718 0.450000
endloop
endfacet
facet normal -0.000004 0.000000 1.000000
outer loop
vertex -0.006275 -0.069718 0.450000
vertex 0.018623 -0.067477 0.450000
vertex 0.041145 -0.056631 0.450000
endloop
endfacet
facet normal -0.000008 0.000000 1.000000
outer loop
vertex 0.041145 -0.056631 0.450000
vertex 0.058420 -0.038563 0.450000
vertex 0.068245 -0.015576 0.450000
endloop
endfacet
facet normal 0.000008 0.000000 1.000000
outer loop
vertex 0.068245 -0.015576 0.450000
vertex 0.069366 0.009396 0.450000
vertex 0.061642 0.033171 0.450000
endloop
endfacet
facet normal 0.000000 0.000000 1.000000
outer loop
vertex 0.061642 0.033171 0.450000
vertex 0.046056 0.052715 0.450000
vertex 0.024596 0.065536 0.450000
endloop
endfacet
facet normal 0.000002 0.000000 1.000000
outer loop
vertex 0.024596 0.065536 0.450000
vertex -0.012499 0.068875 0.450000
vertex -0.054728 0.043644 0.450000
endloop
endfacet
facet normal 0.000000 0.000000 1.000000
outer loop
vertex -0.054728 0.043644 0.450000
vertex -0.069930 -0.003140 0.450000
vertex -0.050596 -0.048374 0.450000
endloop
endfacet
facet normal 0.000000 0.000000 1.000000
outer loop
vertex -0.050596 -0.048374 0.450000
vertex -0.006275 -0.069718 0.450000
vertex 0.041145 -0.056631 0.450000
endloop
endfacet
facet normal -0.000002 0.000000 1.000000
outer loop
vertex 0.041145 -0.056631 0.450000
vertex 0.068245 -0.015576 0.450000
vertex 0.061642 0.033171 0.450000
endloop
endfacet
facet normal 0.000000 0.000000 1.000000
outer loop
vertex 0.061642 0.033171 0.450000
vertex 0.024596 0.065536 0.450000
vertex -0.054728 0.043644 0.450000
endloop
endfacet
facet normal -0.000001 0.000000 1.000000
outer loop
vertex -0.054728 0.043644 0.450000
vertex -0.050596 -0.048374 0.450000
vertex 0.041145 -0.056631 0.450000
endloop
endfacet
facet normal 0.000001 0.000000 1.000000
outer loop
vertex -0.054728 0.043644 0.450000
vertex 0.041145 -0.056631 0.450000
vertex 0.061642 0.033171 0.450000
endloop
endfacet
endsolid Exported from Blender-2.82 (sub 7)
