solid Exported_from_Blender-2.82_(sub_7)
 facet normal 0 0 1
  outer loop
   vertex 0.012499 0.068875 0
   vertex 0.006275 0.069718 0
   vertex 0 0.07 0
  endloop
 endfacet
 facet normal -0 0 1
  outer loop
   vertex 0 0.07 0
   vertex -0.006275 0.069718 0
   vertex -0.012499 0.068875 0
  endloop
 endfacet
 facet normal -0 0 1
  outer loop
   vertex -0.012499 0.068875 0
   vertex -0.018622 0.067477 0
   vertex -0.024596 0.065536 0
  endloop
 endfacet
 facet normal -0 0 1
  outer loop
   vertex -0.024596 0.065536 0
   vertex -0.030372 0.063068 0
   vertex -0.035903 0.060091 0
  endloop
 endfacet
 facet normal -0 0 1
  outer loop
   vertex -0.035903 0.060091 0
   vertex -0.041145 0.056631 0
   vertex -0.046056 0.052715 0
  endloop
 endfacet
 facet normal -0 0 1
  outer loop
   vertex -0.046056 0.052715 0
   vertex -0.050596 0.048374 0
   vertex -0.054728 0.043644 0
  endloop
 endfacet
 facet normal -0 0 1
  outer loop
   vertex -0.054728 0.043644 0
   vertex -0.05842 0.038563 0
   vertex -0.061642 0.033171 0
  endloop
 endfacet
 facet normal -0 0 1
  outer loop
   vertex -0.061642 0.033171 0
   vertex -0.064367 0.027512 0
   vertex -0.066574 0.021631 0
  endloop
 endfacet
 facet normal -0 0 1
  outer loop
   vertex -0.066574 0.021631 0
   vertex -0.068245 0.015577 0
   vertex -0.069366 0.009396 0
  endloop
 endfacet
 facet normal -0 0 1
  outer loop
   vertex -0.069366 0.009396 0
   vertex -0.06993 0.003141 0
   vertex -0.06993 -0.00314 0
  endloop
 endfacet
 facet normal -0 -0 1
  outer loop
   vertex -0.06993 -0.00314 0
   vertex -0.069366 -0.009396 0
   vertex -0.068245 -0.015576 0
  endloop
 endfacet
 facet normal -0 -0 1
  outer loop
   vertex -0.068245 -0.015576 0
   vertex -0.066574 -0.021631 0
   vertex -0.064367 -0.027512 0
  endloop
 endfacet
 facet normal -0 -0 1
  outer loop
   vertex -0.064367 -0.027512 0
   vertex -0.061642 -0.033171 0
   vertex -0.05842 -0.038563 0
  endloop
 endfacet
 facet normal -0 -0 1
  outer loop
   vertex -0.05842 -0.038563 0
   vertex -0.054728 -0.043644 0
   vertex -0.050596 -0.048374 0
  endloop
 endfacet
 facet normal -0 -0 1
  outer loop
   vertex -0.050596 -0.048374 0
   vertex -0.046056 -0.052715 0
   vertex -0.041145 -0.056631 0
  endloop
 endfacet
 facet normal -0 -0 1
  outer loop
   vertex -0.041145 -0.056631 0
   vertex -0.035903 -0.060091 0
   vertex -0.030372 -0.063068 0
  endloop
 endfacet
 facet normal -0 -0 1
  outer loop
   vertex -0.030372 -0.063068 0
   vertex -0.024596 -0.065536 0
   vertex -0.018623 -0.067477 0
  endloop
 endfacet
 facet normal -0 -0 1
  outer loop
   vertex -0.018623 -0.067477 0
   vertex -0.012499 -0.068875 0
   vertex -0.006275 -0.069718 0
  endloop
 endfacet
 facet normal 0 -0 1
  outer loop
   vertex -0.006275 -0.069718 0
   vertex 0 -0.07 0
   vertex 0.006275 -0.069718 0
  endloop
 endfacet
 facet normal 0 -0 1
  outer loop
   vertex 0.006275 -0.069718 0
   vertex 0.012499 -0.068875 0
   vertex 0.018623 -0.067477 0
  endloop
 endfacet
 facet normal 0 -0 1
  outer loop
   vertex 0.018623 -0.067477 0
   vertex 0.024596 -0.065536 0
   vertex 0.030372 -0.063068 0
  endloop
 endfacet
 facet normal 0 -0 1
  outer loop
   vertex 0.030372 -0.063068 0
   vertex 0.035903 -0.060091 0
   vertex 0.041145 -0.056631 0
  endloop
 endfacet
 facet normal 0 -0 1
  outer loop
   vertex 0.041145 -0.056631 0
   vertex 0.046056 -0.052715 0
   vertex 0.050596 -0.048374 0
  endloop
 endfacet
 facet normal 0 -0 1
  outer loop
   vertex 0.050596 -0.048374 0
   vertex 0.054728 -0.043644 0
   vertex 0.05842 -0.038563 0
  endloop
 endfacet
 facet normal 0 -0 1
  outer loop
   vertex 0.05842 -0.038563 0
   vertex 0.061642 -0.033171 0
   vertex 0.064367 -0.027512 0
  endloop
 endfacet
 facet normal 0 -0 1
  outer loop
   vertex 0.064367 -0.027512 0
   vertex 0.066574 -0.021631 0
   vertex 0.068245 -0.015576 0
  endloop
 endfacet
 facet normal 0 -0 1
  outer loop
   vertex 0.068245 -0.015576 0
   vertex 0.069366 -0.009396 0
   vertex 0.06993 -0.003141 0
  endloop
 endfacet
 facet normal 0 0 1
  outer loop
   vertex 0.06993 -0.003141 0
   vertex 0.06993 0.003141 0
   vertex 0.069366 0.009396 0
  endloop
 endfacet
 facet normal 0 0 1
  outer loop
   vertex 0.069366 0.009396 0
   vertex 0.068245 0.015576 0
   vertex 0.066574 0.021631 0
  endloop
 endfacet
 facet normal 0 0 1
  outer loop
   vertex 0.066574 0.021631 0
   vertex 0.064367 0.027512 0
   vertex 0.061642 0.033171 0
  endloop
 endfacet
 facet normal 0 0 1
  outer loop
   vertex 0.061642 0.033171 0
   vertex 0.05842 0.038563 0
   vertex 0.054728 0.043644 0
  endloop
 endfacet
 facet normal 0 0 1
  outer loop
   vertex 0.054728 0.043644 0
   vertex 0.050596 0.048374 0
   vertex 0.046056 0.052715 0
  endloop
 endfacet
 facet normal 0 0 1
  outer loop
   vertex 0.046056 0.052715 0
   vertex 0.041145 0.056631 0
   vertex 0.035903 0.060091 0
  endloop
 endfacet
 facet normal 0 0 1
  outer loop
   vertex 0.035903 0.060091 0
   vertex 0.030372 0.063068 0
   vertex 0.024596 0.065536 0
  endloop
 endfacet
 facet normal 0 0 1
  outer loop
   vertex 0.024596 0.065536 0
   vertex 0.018623 0.067477 0
   vertex 0.012499 0.068875 0
  endloop
 endfacet
 facet normal 0 0 1
  outer loop
   vertex 0.012499 0.068875 0
   vertex 0 0.07 0
   vertex -0.012499 0.068875 0
  endloop
 endfacet
 facet normal -0 0 1
  outer loop
   vertex -0.012499 0.068875 0
   vertex -0.024596 0.065536 0
   vertex -0.035903 0.060091 0
  endloop
 endfacet
 facet normal -0 0 1
  outer loop
   vertex -0.035903 0.060091 0
   vertex -0.046056 0.052715 0
   vertex -0.054728 0.043644 0
  endloop
 endfacet
 facet normal -0 0 1
  outer loop
   vertex -0.054728 0.043644 0
   vertex -0.061642 0.033171 0
   vertex -0.066574 0.021631 0
  endloop
 endfacet
 facet normal -0 0 1
  outer loop
   vertex -0.066574 0.021631 0
   vertex -0.069366 0.009396 0
   vertex -0.06993 -0.00314 0
  endloop
 endfacet
 facet normal -0 -0 1
  outer loop
   vertex -0.06993 -0.00314 0
   vertex -0.068245 -0.015576 0
   vertex -0.064367 -0.027512 0
  endloop
 endfacet
 facet normal -0 -0 1
  outer loop
   vertex -0.064367 -0.027512 0
   vertex -0.05842 -0.038563 0
   vertex -0.050596 -0.048374 0
  endloop
 endfacet
 facet normal -0 -0 1
  outer loop
   vertex -0.050596 -0.048374 0
   vertex -0.041145 -0.056631 0
   vertex -0.030372 -0.063068 0
  endloop
 endfacet
 facet normal -0 -0 1
  outer loop
   vertex -0.030372 -0.063068 0
   vertex -0.018623 -0.067477 0
   vertex -0.006275 -0.069718 0
  endloop
 endfacet
 facet normal 0 -0 1
  outer loop
   vertex -0.006275 -0.069718 0
   vertex 0.006275 -0.069718 0
   vertex 0.018623 -0.067477 0
  endloop
 endfacet
 facet normal 0 -0 1
  outer loop
   vertex 0.018623 -0.067477 0
   vertex 0.030372 -0.063068 0
   vertex 0.041145 -0.056631 0
  endloop
 endfacet
 facet normal 0 -0 1
  outer loop
   vertex 0.041145 -0.056631 0
   vertex 0.050596 -0.048374 0
   vertex 0.05842 -0.038563 0
  endloop
 endfacet
 facet normal 0 -0 1
  outer loop
   vertex 0.05842 -0.038563 0
   vertex 0.064367 -0.027512 0
   vertex 0.068245 -0.015576 0
  endloop
 endfacet
 facet normal 0 0 1
  outer loop
   vertex 0.068245 -0.015576 0
   vertex 0.06993 -0.003141 0
   vertex 0.069366 0.009396 0
  endloop
 endfacet
 facet normal 0 0 1
  outer loop
   vertex 0.069366 0.009396 0
   vertex 0.066574 0.021631 0
   vertex 0.061642 0.033171 0
  endloop
 endfacet
 facet normal 0 0 1
  outer loop
   vertex 0.061642 0.033171 0
   vertex 0.054728 0.043644 0
   vertex 0.046056 0.052715 0
  endloop
 endfacet
 facet normal 0 0 1
  outer loop
   vertex 0.046056 0.052715 0
   vertex 0.035903 0.060091 0
   vertex 0.024596 0.065536 0
  endloop
 endfacet
 facet normal 0 0 1
  outer loop
   vertex 0.024596 0.065536 0
   vertex 0.012499 0.068875 0
   vertex -0.012499 0.068875 0
  endloop
 endfacet
 facet normal -0 0 1
  outer loop
   vertex -0.012499 0.068875 0
   vertex -0.035903 0.060091 0
   vertex -0.054728 0.043644 0
  endloop
 endfacet
 facet normal -0 0 1
  outer loop
   vertex -0.054728 0.043644 0
   vertex -0.066574 0.021631 0
   vertex -0.06993 -0.00314 0
  endloop
 endfacet
 facet normal -0 -0 1
  outer loop
   vertex -0.06993 -0.00314 0
   vertex -0.064367 -0.027512 0
   vertex -0.050596 -0.048374 0
  endloop
 endfacet
 facet normal -0 -0 1
  outer loop
   vertex -0.050596 -0.048374 0
   vertex -0.030372 -0.063068 0
   vertex -0.006275 -0.069718 0
  endloop
 endfacet
 facet normal 0 -0 1
  outer loop
   vertex -0.006275 -0.069718 0
   vertex 0.018623 -0.067477 0
   vertex 0.041145 -0.056631 0
  endloop
 endfacet
 facet normal 0 -0 1
  outer loop
   vertex 0.041145 -0.056631 0
   vertex 0.05842 -0.038563 0
   vertex 0.068245 -0.015576 0
  endloop
 endfacet
 facet normal 0 0 1
  outer loop
   vertex 0.068245 -0.015576 0
   vertex 0.069366 0.009396 0
   vertex 0.061642 0.033171 0
  endloop
 endfacet
 facet normal 0 0 1
  outer loop
   vertex 0.061642 0.033171 0
   vertex 0.046056 0.052715 0
   vertex 0.024596 0.065536 0
  endloop
 endfacet
 facet normal 0 0 1
  outer loop
   vertex 0.024596 0.065536 0
   vertex -0.012499 0.068875 0
   vertex -0.054728 0.043644 0
  endloop
 endfacet
 facet normal -0 0 1
  outer loop
   vertex -0.054728 0.043644 0
   vertex -0.06993 -0.00314 0
   vertex -0.050596 -0.048374 0
  endloop
 endfacet
 facet normal 0 -0 1
  outer loop
   vertex -0.050596 -0.048374 0
   vertex -0.006275 -0.069718 0
   vertex 0.041145 -0.056631 0
  endloop
 endfacet
 facet normal 0 0 1
  outer loop
   vertex 0.041145 -0.056631 0
   vertex 0.068245 -0.015576 0
   vertex 0.061642 0.033171 0
  endloop
 endfacet
 facet normal 0 0 1
  outer loop
   vertex 0.061642 0.033171 0
   vertex 0.024596 0.065536 0
   vertex -0.054728 0.043644 0
  endloop
 endfacet
 facet normal -0 -0 1
  outer loop
   vertex -0.054728 0.043644 0
   vertex -0.050596 -0.048374 0
   vertex 0.041145 -0.056631 0
  endloop
 endfacet
 facet normal 0 -0 1
  outer loop
   vertex -0.054728 0.043644 0
   vertex 0.041145 -0.056631 0
   vertex 0.061642 0.033171 0
  endloop
 endfacet
endsolid Exported_from_Blender-2.82_(sub_7)
